<svg xmlns="http://www.w3.org/2000/svg" width="128" height="128" viewBox="0 0 128 128" role="img" aria-labelledby="title">
  <title id="title">bloxup.shop rocket logo</title>
  <defs>
    <linearGradient id="body" x1="35" x2="95" y1="95" y2="22" gradientUnits="userSpaceOnUse">
      <stop stop-color="#09b927"/>
      <stop offset=".58" stop-color="#2ff238"/>
      <stop offset="1" stop-color="#74ff5f"/>
    </linearGradient>
    <linearGradient id="fin" x1="28" x2="76" y1="99" y2="50" gradientUnits="userSpaceOnUse">
      <stop stop-color="#08a920"/>
      <stop offset="1" stop-color="#54ff4c"/>
    </linearGradient>
    <linearGradient id="flame" x1="23" x2="52" y1="100" y2="80" gradientUnits="userSpaceOnUse">
      <stop stop-color="#a6ffd4"/>
      <stop offset=".62" stop-color="#28f273"/>
      <stop offset="1" stop-color="#06d844"/>
    </linearGradient>
  </defs>
  <path fill="#050805" d="M83 14h24v12h7v30h-8v10h-8v12H88v15H76v17H63V98H51v-9H39v10H28v12H16V91h9V80h10V68h11V56h10V44h11V33h16z"/>
  <path fill="url(#body)" d="M82 25h21v26h-8v12h-9v12H75v15H64V78H53V66h8V54h9V42h12z"/>
  <path fill="#67ff56" d="M86 25h17v17H91v-8h-5z"/>
  <path fill="#0d8f20" d="M75 76h11v15H74v16H64V90h11z"/>
  <path fill="url(#fin)" d="M37 70h20v17H43v9H29V83h8z"/>
  <path fill="url(#fin)" d="M72 92h15v15H76v11H61v-14h11z"/>
  <path fill="#050805" d="M79 34h17v8h8v13h-8V43H79zM69 47h17v8H69zM48 70h12v9H48z"/>
  <path fill="#dfffe6" d="M78 44h18v18H78z"/>
  <path fill="#050805" d="M74 40h26v8h4v10h-4v8H74v-8h-4V48h4z"/>
  <path fill="#f8fff9" d="M80 47h15v14H80z"/>
  <path fill="#9dff8f" d="M60 53h9v8h-9zM52 64h8v14h-8zM82 25h12v6H82zM72 35h10v6H72zM64 43h8v7h-8z"/>
  <path fill="#050805" d="M45 83h17v9h9v9H54v-9h-9z"/>
  <path fill="#0d8f20" d="M52 83h10v9h8v6H56v-8h-4z"/>
  <path fill="url(#flame)" d="M22 88h17v-7h12v12h8v17h-9v8H32v-8H21z"/>
  <path fill="#d8ffe4" d="M29 90h10v8H29zM38 82h9v9h-9z"/>
  <path fill="#050805" d="M21 83h8v-7h14v7h11v8h8v22h-8v8H29v-8H18V90h3zm8 8v15h8v7h10v-8h8V96h-9v-8H35v8z"/>
  <path fill="#38f26c" d="M29 91h7v14h8v8h-7v-7h-8z"/>
</svg>
